<svg width="16" height="16" viewBox="0 0 16 16" fill="none" xmlns="http://www.w3.org/2000/svg">
<path d="M2.653 1.3347C2.653 0.980716 2.79362 0.64123 3.04392 0.390925C3.29423 0.14062 3.63372 0 3.9877 0H14.6653C15.0193 0 15.3588 0.14062 15.6091 0.390925C15.8594 0.64123 16 0.980716 16 1.3347V12.0123C16 12.3663 15.8594 12.7058 15.6091 12.9561C15.3588 13.2064 15.0193 13.347 14.6653 13.347C14.3113 13.347 13.9718 13.2064 13.7215 12.9561C13.4712 12.7058 13.3306 12.3663 13.3306 12.0123V4.55667L2.26193 15.6253C2.0102 15.8685 1.67306 16.003 1.3231 16C0.973148 15.9969 0.638389 15.8565 0.390925 15.6091C0.143461 15.3616 0.00309146 15.0269 5.0455e-05 14.6769C-0.00299055 14.3269 0.13154 13.9898 0.374667 13.7381L11.4433 2.6694H3.9877C3.63372 2.6694 3.29423 2.52878 3.04392 2.27848C2.79362 2.02817 2.653 1.68868 2.653 1.3347Z" fill="#F8710A"/>
</svg>
