<svg width="1116" height="498" viewBox="0 0 1116 498" fill="none" xmlns="http://www.w3.org/2000/svg">
<mask id="path-1-outside-1_9_499" maskUnits="userSpaceOnUse" x="-1" y="-1" width="1120" height="500" fill="black">
<rect fill="white" x="-1" y="-1" width="1120" height="500"/>
<path d="M39.5625 152.146L0.0117188 112.742V48.1426H194.396V26.4629H0.0117188V0.681641H225.158L263.684 39.207V68.6504H69.2988V80.5156H225.158L263.684 119.627V152.146H39.5625ZM503.479 152.146H472.717V80.3691H378.82L306.311 152.146H278.332V79.3438L357.873 0.681641H542.004V113.621L503.479 152.146ZM472.717 59.8613V33.2012H426.574L399.621 59.8613H472.717ZM781.799 152.146H751.037V80.3691H657.141L584.631 152.146H556.652V79.3438L636.193 0.681641H820.324V113.621L781.799 152.146ZM751.037 59.8613V33.2012H704.895L677.941 59.8613H751.037ZM1115.64 152.146H1014.12L961.096 99.7051L907.922 152.146H806.408L878.771 80.5156H916.125L850.061 15.1836V0.535156H915.832L961.096 45.2129L1006.21 0.535156H1071.98V15.1836L1005.92 80.5156H1043.27L1115.64 152.146ZM39.5625 497.146L0.0117188 457.742V393.143H194.396V371.463H0.0117188V345.682H225.158L263.684 384.207V413.65H69.2988V425.516H225.158L263.684 464.627V497.146H39.5625ZM503.479 497.146H472.717V425.369H378.82L306.311 497.146H278.332V424.344L357.873 345.682H542.004V458.621L503.479 497.146ZM472.717 404.861V378.201H426.574L399.621 404.861H472.717ZM781.799 497.146H751.037V425.369H657.141L584.631 497.146H556.652V424.344L636.193 345.682H820.324V458.621L781.799 497.146ZM751.037 404.861V378.201H704.895L677.941 404.861H751.037ZM1115.64 497.146H1014.12L961.096 444.705L907.922 497.146H806.408L878.771 425.516H916.125L850.061 360.184V345.535H915.832L961.096 390.213L1006.21 345.535H1071.98V360.184L1005.92 425.516H1043.27L1115.64 497.146Z"/>
</mask>
<path d="M39.5625 152.146L38.8567 152.855L39.1494 153.146H39.5625V152.146ZM0.0117188 112.742H-0.988281V113.157L-0.694075 113.451L0.0117188 112.742ZM0.0117188 48.1426V47.1426H-0.988281V48.1426H0.0117188ZM194.396 48.1426V49.1426H195.396V48.1426H194.396ZM194.396 26.4629H195.396V25.4629H194.396V26.4629ZM0.0117188 26.4629H-0.988281V27.4629H0.0117188V26.4629ZM0.0117188 0.681641V-0.318359H-0.988281V0.681641H0.0117188ZM225.158 0.681641L225.865 -0.0254662L225.572 -0.318359H225.158V0.681641ZM263.684 39.207H264.684V38.7928L264.391 38.4999L263.684 39.207ZM263.684 68.6504V69.6504H264.684V68.6504H263.684ZM69.2988 68.6504V67.6504H68.2988V68.6504H69.2988ZM69.2988 80.5156H68.2988V81.5156H69.2988V80.5156ZM225.158 80.5156L225.871 79.8139L225.577 79.5156H225.158V80.5156ZM263.684 119.627H264.684V119.217L264.396 118.925L263.684 119.627ZM263.684 152.146V153.146H264.684V152.146H263.684ZM40.2683 151.438L0.717512 112.034L-0.694075 113.451L38.8567 152.855L40.2683 151.438ZM1.01172 112.742V48.1426H-0.988281V112.742H1.01172ZM0.0117188 49.1426H194.396V47.1426H0.0117188V49.1426ZM195.396 48.1426V26.4629H193.396V48.1426H195.396ZM194.396 25.4629H0.0117188V27.4629H194.396V25.4629ZM1.01172 26.4629V0.681641H-0.988281V26.4629H1.01172ZM0.0117188 1.68164H225.158V-0.318359H0.0117188V1.68164ZM224.451 1.38875L262.976 39.9141L264.391 38.4999L225.865 -0.0254662L224.451 1.38875ZM262.684 39.207V68.6504H264.684V39.207H262.684ZM263.684 67.6504H69.2988V69.6504H263.684V67.6504ZM68.2988 68.6504V80.5156H70.2988V68.6504H68.2988ZM69.2988 81.5156H225.158V79.5156H69.2988V81.5156ZM224.446 81.2174L262.971 120.329L264.396 118.925L225.871 79.8139L224.446 81.2174ZM262.684 119.627V152.146H264.684V119.627H262.684ZM263.684 151.146H39.5625V153.146H263.684V151.146ZM503.479 152.146V153.146H503.893L504.186 152.854L503.479 152.146ZM472.717 152.146H471.717V153.146H472.717V152.146ZM472.717 80.3691H473.717V79.3691H472.717V80.3691ZM378.82 80.3691V79.3691H378.409L378.117 79.6585L378.82 80.3691ZM306.311 152.146V153.146H306.722L307.014 152.857L306.311 152.146ZM278.332 152.146H277.332V153.146H278.332V152.146ZM278.332 79.3438L277.629 78.6327L277.332 78.9263V79.3438H278.332ZM357.873 0.681641V-0.318359H357.462L357.17 -0.0293836L357.873 0.681641ZM542.004 0.681641H543.004V-0.318359H542.004V0.681641ZM542.004 113.621L542.711 114.328L543.004 114.035V113.621H542.004ZM472.717 59.8613V60.8613H473.717V59.8613H472.717ZM472.717 33.2012H473.717V32.2012H472.717V33.2012ZM426.574 33.2012V32.2012H426.163L425.871 32.4902L426.574 33.2012ZM399.621 59.8613L398.918 59.1504L397.188 60.8613H399.621V59.8613ZM503.479 151.146H472.717V153.146H503.479V151.146ZM473.717 152.146V80.3691H471.717V152.146H473.717ZM472.717 79.3691H378.82V81.3691H472.717V79.3691ZM378.117 79.6585L305.607 151.436L307.014 152.857L379.524 81.0798L378.117 79.6585ZM306.311 151.146H278.332V153.146H306.311V151.146ZM279.332 152.146V79.3438H277.332V152.146H279.332ZM279.035 80.0548L358.576 1.39266L357.17 -0.0293836L277.629 78.6327L279.035 80.0548ZM357.873 1.68164H542.004V-0.318359H357.873V1.68164ZM541.004 0.681641V113.621H543.004V0.681641H541.004ZM541.297 112.914L502.771 151.439L504.186 152.854L542.711 114.328L541.297 112.914ZM473.717 59.8613V33.2012H471.717V59.8613H473.717ZM472.717 32.2012H426.574V34.2012H472.717V32.2012ZM425.871 32.4902L398.918 59.1504L400.324 60.5723L427.277 33.9121L425.871 32.4902ZM399.621 60.8613H472.717V58.8613H399.621V60.8613ZM781.799 152.146V153.146H782.213L782.506 152.854L781.799 152.146ZM751.037 152.146H750.037V153.146H751.037V152.146ZM751.037 80.3691H752.037V79.3691H751.037V80.3691ZM657.141 80.3691V79.3691H656.729L656.437 79.6585L657.141 80.3691ZM584.631 152.146V153.146H585.042L585.334 152.857L584.631 152.146ZM556.652 152.146H555.652V153.146H556.652V152.146ZM556.652 79.3438L555.949 78.6327L555.652 78.9263V79.3438H556.652ZM636.193 0.681641V-0.318359H635.782L635.49 -0.0293836L636.193 0.681641ZM820.324 0.681641H821.324V-0.318359H820.324V0.681641ZM820.324 113.621L821.031 114.328L821.324 114.035V113.621H820.324ZM751.037 59.8613V60.8613H752.037V59.8613H751.037ZM751.037 33.2012H752.037V32.2012H751.037V33.2012ZM704.895 33.2012V32.2012H704.484L704.191 32.4902L704.895 33.2012ZM677.941 59.8613L677.238 59.1504L675.508 60.8613H677.941V59.8613ZM781.799 151.146H751.037V153.146H781.799V151.146ZM752.037 152.146V80.3691H750.037V152.146H752.037ZM751.037 79.3691H657.141V81.3691H751.037V79.3691ZM656.437 79.6585L583.927 151.436L585.334 152.857L657.844 81.0798L656.437 79.6585ZM584.631 151.146H556.652V153.146H584.631V151.146ZM557.652 152.146V79.3438H555.652V152.146H557.652ZM557.356 80.0548L636.897 1.39266L635.49 -0.0293836L555.949 78.6327L557.356 80.0548ZM636.193 1.68164H820.324V-0.318359H636.193V1.68164ZM819.324 0.681641V113.621H821.324V0.681641H819.324ZM819.617 112.914L781.092 151.439L782.506 152.854L821.031 114.328L819.617 112.914ZM752.037 59.8613V33.2012H750.037V59.8613H752.037ZM751.037 32.2012H704.895V34.2012H751.037V32.2012ZM704.191 32.4902L677.238 59.1504L678.645 60.5723L705.598 33.9121L704.191 32.4902ZM677.941 60.8613H751.037V58.8613H677.941V60.8613ZM1115.64 152.146V153.146H1118.07L1116.34 151.436L1115.64 152.146ZM1014.12 152.146L1013.42 152.858L1013.71 153.146H1014.12V152.146ZM961.096 99.7051L961.799 98.9941L961.097 98.2996L960.394 98.9931L961.096 99.7051ZM907.922 152.146V153.146H908.332L908.624 152.858L907.922 152.146ZM806.408 152.146L805.705 151.436L803.977 153.146H806.408V152.146ZM878.771 80.5156V79.5156H878.36L878.068 79.8049L878.771 80.5156ZM916.125 80.5156V81.5156H918.558L916.828 79.8046L916.125 80.5156ZM850.061 15.1836H849.061V15.6011L849.357 15.8946L850.061 15.1836ZM850.061 0.535156V-0.464844H849.061V0.535156H850.061ZM915.832 0.535156L916.535 -0.176542L916.242 -0.464844H915.832V0.535156ZM961.096 45.2129L960.393 45.9246L961.097 46.6191L961.799 45.9234L961.096 45.2129ZM1006.21 0.535156V-0.464844H1005.8L1005.51 -0.175403L1006.21 0.535156ZM1071.98 0.535156H1072.98V-0.464844H1071.98V0.535156ZM1071.98 15.1836L1072.69 15.8946L1072.98 15.6011V15.1836H1071.98ZM1005.92 80.5156L1005.22 79.8046L1003.49 81.5156H1005.92V80.5156ZM1043.27 80.5156L1043.98 79.8049L1043.68 79.5156H1043.27V80.5156ZM1115.64 151.146H1014.12V153.146H1115.64V151.146ZM1014.83 151.435L961.799 98.9941L960.393 100.416L1013.42 152.858L1014.83 151.435ZM960.394 98.9931L907.22 151.434L908.624 152.858L961.798 100.417L960.394 98.9931ZM907.922 151.146H806.408V153.146H907.922V151.146ZM807.112 152.857L879.475 81.2263L878.068 79.8049L805.705 151.436L807.112 152.857ZM878.771 81.5156H916.125V79.5156H878.771V81.5156ZM916.828 79.8046L850.764 14.4726L849.357 15.8946L915.422 81.2267L916.828 79.8046ZM851.061 15.1836V0.535156H849.061V15.1836H851.061ZM850.061 1.53516H915.832V-0.464844H850.061V1.53516ZM915.13 1.24685L960.393 45.9246L961.798 44.5012L916.535 -0.176542L915.13 1.24685ZM961.799 45.9234L1006.92 1.24572L1005.51 -0.175403L960.392 44.5023L961.799 45.9234ZM1006.21 1.53516H1071.98V-0.464844H1006.21V1.53516ZM1070.98 0.535156V15.1836H1072.98V0.535156H1070.98ZM1071.28 14.4726L1005.22 79.8046L1006.62 81.2267L1072.69 15.8946L1071.28 14.4726ZM1005.92 81.5156H1043.27V79.5156H1005.92V81.5156ZM1042.57 81.2263L1114.93 152.857L1116.34 151.436L1043.98 79.8049L1042.57 81.2263ZM39.5625 497.146L38.8567 497.855L39.1494 498.146H39.5625V497.146ZM0.0117188 457.742H-0.988281V458.157L-0.694075 458.451L0.0117188 457.742ZM0.0117188 393.143V392.143H-0.988281V393.143H0.0117188ZM194.396 393.143V394.143H195.396V393.143H194.396ZM194.396 371.463H195.396V370.463H194.396V371.463ZM0.0117188 371.463H-0.988281V372.463H0.0117188V371.463ZM0.0117188 345.682V344.682H-0.988281V345.682H0.0117188ZM225.158 345.682L225.865 344.975L225.572 344.682H225.158V345.682ZM263.684 384.207H264.684V383.793L264.391 383.5L263.684 384.207ZM263.684 413.65V414.65H264.684V413.65H263.684ZM69.2988 413.65V412.65H68.2988V413.65H69.2988ZM69.2988 425.516H68.2988V426.516H69.2988V425.516ZM225.158 425.516L225.871 424.814L225.577 424.516H225.158V425.516ZM263.684 464.627H264.684V464.217L264.396 463.925L263.684 464.627ZM263.684 497.146V498.146H264.684V497.146H263.684ZM40.2683 496.438L0.717512 457.034L-0.694075 458.451L38.8567 497.855L40.2683 496.438ZM1.01172 457.742V393.143H-0.988281V457.742H1.01172ZM0.0117188 394.143H194.396V392.143H0.0117188V394.143ZM195.396 393.143V371.463H193.396V393.143H195.396ZM194.396 370.463H0.0117188V372.463H194.396V370.463ZM1.01172 371.463V345.682H-0.988281V371.463H1.01172ZM0.0117188 346.682H225.158V344.682H0.0117188V346.682ZM224.451 346.389L262.976 384.914L264.391 383.5L225.865 344.975L224.451 346.389ZM262.684 384.207V413.65H264.684V384.207H262.684ZM263.684 412.65H69.2988V414.65H263.684V412.65ZM68.2988 413.65V425.516H70.2988V413.65H68.2988ZM69.2988 426.516H225.158V424.516H69.2988V426.516ZM224.446 426.217L262.971 465.329L264.396 463.925L225.871 424.814L224.446 426.217ZM262.684 464.627V497.146H264.684V464.627H262.684ZM263.684 496.146H39.5625V498.146H263.684V496.146ZM503.479 497.146V498.146H503.893L504.186 497.854L503.479 497.146ZM472.717 497.146H471.717V498.146H472.717V497.146ZM472.717 425.369H473.717V424.369H472.717V425.369ZM378.82 425.369V424.369H378.409L378.117 424.658L378.82 425.369ZM306.311 497.146V498.146H306.722L307.014 497.857L306.311 497.146ZM278.332 497.146H277.332V498.146H278.332V497.146ZM278.332 424.344L277.629 423.633L277.332 423.926V424.344H278.332ZM357.873 345.682V344.682H357.462L357.17 344.971L357.873 345.682ZM542.004 345.682H543.004V344.682H542.004V345.682ZM542.004 458.621L542.711 459.328L543.004 459.035V458.621H542.004ZM472.717 404.861V405.861H473.717V404.861H472.717ZM472.717 378.201H473.717V377.201H472.717V378.201ZM426.574 378.201V377.201H426.163L425.871 377.49L426.574 378.201ZM399.621 404.861L398.918 404.15L397.188 405.861H399.621V404.861ZM503.479 496.146H472.717V498.146H503.479V496.146ZM473.717 497.146V425.369H471.717V497.146H473.717ZM472.717 424.369H378.82V426.369H472.717V424.369ZM378.117 424.658L305.607 496.436L307.014 497.857L379.524 426.08L378.117 424.658ZM306.311 496.146H278.332V498.146H306.311V496.146ZM279.332 497.146V424.344H277.332V497.146H279.332ZM279.035 425.055L358.576 346.393L357.17 344.971L277.629 423.633L279.035 425.055ZM357.873 346.682H542.004V344.682H357.873V346.682ZM541.004 345.682V458.621H543.004V345.682H541.004ZM541.297 457.914L502.771 496.439L504.186 497.854L542.711 459.328L541.297 457.914ZM473.717 404.861V378.201H471.717V404.861H473.717ZM472.717 377.201H426.574V379.201H472.717V377.201ZM425.871 377.49L398.918 404.15L400.324 405.572L427.277 378.912L425.871 377.49ZM399.621 405.861H472.717V403.861H399.621V405.861ZM781.799 497.146V498.146H782.213L782.506 497.854L781.799 497.146ZM751.037 497.146H750.037V498.146H751.037V497.146ZM751.037 425.369H752.037V424.369H751.037V425.369ZM657.141 425.369V424.369H656.729L656.437 424.658L657.141 425.369ZM584.631 497.146V498.146H585.042L585.334 497.857L584.631 497.146ZM556.652 497.146H555.652V498.146H556.652V497.146ZM556.652 424.344L555.949 423.633L555.652 423.926V424.344H556.652ZM636.193 345.682V344.682H635.782L635.49 344.971L636.193 345.682ZM820.324 345.682H821.324V344.682H820.324V345.682ZM820.324 458.621L821.031 459.328L821.324 459.035V458.621H820.324ZM751.037 404.861V405.861H752.037V404.861H751.037ZM751.037 378.201H752.037V377.201H751.037V378.201ZM704.895 378.201V377.201H704.484L704.191 377.49L704.895 378.201ZM677.941 404.861L677.238 404.15L675.508 405.861H677.941V404.861ZM781.799 496.146H751.037V498.146H781.799V496.146ZM752.037 497.146V425.369H750.037V497.146H752.037ZM751.037 424.369H657.141V426.369H751.037V424.369ZM656.437 424.658L583.927 496.436L585.334 497.857L657.844 426.08L656.437 424.658ZM584.631 496.146H556.652V498.146H584.631V496.146ZM557.652 497.146V424.344H555.652V497.146H557.652ZM557.356 425.055L636.897 346.393L635.49 344.971L555.949 423.633L557.356 425.055ZM636.193 346.682H820.324V344.682H636.193V346.682ZM819.324 345.682V458.621H821.324V345.682H819.324ZM819.617 457.914L781.092 496.439L782.506 497.854L821.031 459.328L819.617 457.914ZM752.037 404.861V378.201H750.037V404.861H752.037ZM751.037 377.201H704.895V379.201H751.037V377.201ZM704.191 377.49L677.238 404.15L678.645 405.572L705.598 378.912L704.191 377.49ZM677.941 405.861H751.037V403.861H677.941V405.861ZM1115.64 497.146V498.146H1118.07L1116.34 496.436L1115.64 497.146ZM1014.12 497.146L1013.42 497.858L1013.71 498.146H1014.12V497.146ZM961.096 444.705L961.799 443.994L961.097 443.3L960.394 443.993L961.096 444.705ZM907.922 497.146V498.146H908.332L908.624 497.858L907.922 497.146ZM806.408 497.146L805.705 496.436L803.977 498.146H806.408V497.146ZM878.771 425.516V424.516H878.36L878.068 424.805L878.771 425.516ZM916.125 425.516V426.516H918.558L916.828 424.805L916.125 425.516ZM850.061 360.184H849.061V360.601L849.357 360.895L850.061 360.184ZM850.061 345.535V344.535H849.061V345.535H850.061ZM915.832 345.535L916.535 344.823L916.242 344.535H915.832V345.535ZM961.096 390.213L960.393 390.925L961.097 391.619L961.799 390.923L961.096 390.213ZM1006.21 345.535V344.535H1005.8L1005.51 344.825L1006.21 345.535ZM1071.98 345.535H1072.98V344.535H1071.98V345.535ZM1071.98 360.184L1072.69 360.895L1072.98 360.601V360.184H1071.98ZM1005.92 425.516L1005.22 424.805L1003.49 426.516H1005.92V425.516ZM1043.27 425.516L1043.98 424.805L1043.68 424.516H1043.27V425.516ZM1115.64 496.146H1014.12V498.146H1115.64V496.146ZM1014.83 496.435L961.799 443.994L960.393 445.416L1013.42 497.858L1014.83 496.435ZM960.394 443.993L907.22 496.434L908.624 497.858L961.798 445.417L960.394 443.993ZM907.922 496.146H806.408V498.146H907.922V496.146ZM807.112 497.857L879.475 426.226L878.068 424.805L805.705 496.436L807.112 497.857ZM878.771 426.516H916.125V424.516H878.771V426.516ZM916.828 424.805L850.764 359.473L849.357 360.895L915.422 426.227L916.828 424.805ZM851.061 360.184V345.535H849.061V360.184H851.061ZM850.061 346.535H915.832V344.535H850.061V346.535ZM915.13 346.247L960.393 390.925L961.798 389.501L916.535 344.823L915.13 346.247ZM961.799 390.923L1006.92 346.246L1005.51 344.825L960.392 389.502L961.799 390.923ZM1006.21 346.535H1071.98V344.535H1006.21V346.535ZM1070.98 345.535V360.184H1072.98V345.535H1070.98ZM1071.28 359.473L1005.22 424.805L1006.62 426.227L1072.69 360.895L1071.28 359.473ZM1005.92 426.516H1043.27V424.516H1005.92V426.516ZM1042.57 426.226L1114.93 497.857L1116.34 496.436L1043.98 424.805L1042.57 426.226Z" fill="#FFBD98" mask="url(#path-1-outside-1_9_499)"/>
</svg>
