<svg width="1120" height="500" viewBox="0 0 1120 500" fill="none" xmlns="http://www.w3.org/2000/svg">
<mask id="path-1-outside-1_153_431" maskUnits="userSpaceOnUse" x="0.0117188" y="0.535156" width="1120" height="499" fill="black">
<rect fill="white" x="0.0117188" y="0.535156" width="1120" height="499"/>
<path d="M40.5625 153.146L1.01172 113.742V49.1426H195.396V27.4629H1.01172V1.68164H226.158L264.684 40.207V69.6504H70.2988V81.5156H226.158L264.684 120.627V153.146H40.5625ZM504.479 153.146H473.717V81.3691H379.82L307.311 153.146H279.332V80.3438L358.873 1.68164H543.004V114.621L504.479 153.146ZM473.717 60.8613V34.2012H427.574L400.621 60.8613H473.717ZM782.799 153.146H752.037V81.3691H658.141L585.631 153.146H557.652V80.3438L637.193 1.68164H821.324V114.621L782.799 153.146ZM752.037 60.8613V34.2012H705.895L678.941 60.8613H752.037ZM1116.64 153.146H1015.12L962.096 100.705L908.922 153.146H807.408L879.771 81.5156H917.125L851.061 16.1836V1.53516H916.832L962.096 46.2129L1007.21 1.53516H1072.98V16.1836L1006.92 81.5156H1044.27L1116.64 153.146ZM40.5625 498.146L1.01172 458.742V394.143H195.396V372.463H1.01172V346.682H226.158L264.684 385.207V414.65H70.2988V426.516H226.158L264.684 465.627V498.146H40.5625ZM504.479 498.146H473.717V426.369H379.82L307.311 498.146H279.332V425.344L358.873 346.682H543.004V459.621L504.479 498.146ZM473.717 405.861V379.201H427.574L400.621 405.861H473.717ZM782.799 498.146H752.037V426.369H658.141L585.631 498.146H557.652V425.344L637.193 346.682H821.324V459.621L782.799 498.146ZM752.037 405.861V379.201H705.895L678.941 405.861H752.037ZM1116.64 498.146H1015.12L962.096 445.705L908.922 498.146H807.408L879.771 426.516H917.125L851.061 361.184V346.535H916.832L962.096 391.213L1007.21 346.535H1072.98V361.184L1006.92 426.516H1044.27L1116.64 498.146Z"/>
</mask>
<path d="M40.5625 153.146L1.01172 113.742V49.1426H195.396V27.4629H1.01172V1.68164H226.158L264.684 40.207V69.6504H70.2988V81.5156H226.158L264.684 120.627V153.146H40.5625ZM504.479 153.146H473.717V81.3691H379.82L307.311 153.146H279.332V80.3438L358.873 1.68164H543.004V114.621L504.479 153.146ZM473.717 60.8613V34.2012H427.574L400.621 60.8613H473.717ZM782.799 153.146H752.037V81.3691H658.141L585.631 153.146H557.652V80.3438L637.193 1.68164H821.324V114.621L782.799 153.146ZM752.037 60.8613V34.2012H705.895L678.941 60.8613H752.037ZM1116.64 153.146H1015.12L962.096 100.705L908.922 153.146H807.408L879.771 81.5156H917.125L851.061 16.1836V1.53516H916.832L962.096 46.2129L1007.21 1.53516H1072.98V16.1836L1006.92 81.5156H1044.27L1116.64 153.146ZM40.5625 498.146L1.01172 458.742V394.143H195.396V372.463H1.01172V346.682H226.158L264.684 385.207V414.65H70.2988V426.516H226.158L264.684 465.627V498.146H40.5625ZM504.479 498.146H473.717V426.369H379.82L307.311 498.146H279.332V425.344L358.873 346.682H543.004V459.621L504.479 498.146ZM473.717 405.861V379.201H427.574L400.621 405.861H473.717ZM782.799 498.146H752.037V426.369H658.141L585.631 498.146H557.652V425.344L637.193 346.682H821.324V459.621L782.799 498.146ZM752.037 405.861V379.201H705.895L678.941 405.861H752.037ZM1116.64 498.146H1015.12L962.096 445.705L908.922 498.146H807.408L879.771 426.516H917.125L851.061 361.184V346.535H916.832L962.096 391.213L1007.21 346.535H1072.98V361.184L1006.92 426.516H1044.27L1116.64 498.146Z" stroke="#FFBD98" stroke-width="2" mask="url(#path-1-outside-1_153_431)"/>
</svg>
