<svg width="1360" height="473" viewBox="0 0 1360 473" fill="none" xmlns="http://www.w3.org/2000/svg">
<path d="M14.1771 5H379.474L462.174 92.5H932.381L1016.03 181H1395.5M1381.32 5H1016.03L933.326 92.5H463.119L379.474 181H0" stroke="url(#paint0_linear_7_498)" stroke-width="2"/>
<path d="M185.562 343.146L146.011 303.742V239.143H340.396V217.463H146.011V191.682H371.158L409.683 230.207V259.65H215.299V271.516H371.158L409.683 310.627V343.146H185.562ZM649.478 343.146H618.717V271.369H524.82L452.31 343.146H424.332V270.344L503.873 191.682H688.004V304.621L649.478 343.146ZM618.717 250.861V224.201H572.574L545.621 250.861H618.717ZM927.799 343.146H897.037V271.369H803.14L730.631 343.146H702.652V270.344L782.193 191.682H966.324V304.621L927.799 343.146ZM897.037 250.861V224.201H850.894L823.941 250.861H897.037ZM1261.64 343.146H1160.12L1107.1 290.705L1053.92 343.146H952.408L1024.77 271.516H1062.12L996.06 206.184V191.535H1061.83L1107.1 236.213L1152.21 191.535H1217.98V206.184L1151.92 271.516H1189.27L1261.64 343.146Z" fill="white" fill-opacity="0.91"/>
<mask id="path-3-outside-1_7_498" maskUnits="userSpaceOnUse" x="147" y="222" width="1120" height="155" fill="black">
<rect fill="white" x="147" y="222" width="1120" height="155"/>
<path d="M187.562 375.146L148.011 335.742V271.143H342.396V249.463H148.011V223.682H373.158L411.683 262.207V291.65H217.299V303.516H373.158L411.683 342.627V375.146H187.562ZM651.478 375.146H620.717V303.369H526.82L454.31 375.146H426.332V302.344L505.873 223.682H690.004V336.621L651.478 375.146ZM620.717 282.861V256.201H574.574L547.621 282.861H620.717ZM929.799 375.146H899.037V303.369H805.14L732.631 375.146H704.652V302.344L784.193 223.682H968.324V336.621L929.799 375.146ZM899.037 282.861V256.201H852.894L825.941 282.861H899.037ZM1263.64 375.146H1162.12L1109.1 322.705L1055.92 375.146H954.408L1026.77 303.516H1064.12L998.06 238.184V223.535H1063.83L1109.1 268.213L1154.21 223.535H1219.98V238.184L1153.92 303.516H1191.27L1263.64 375.146Z"/>
</mask>
<path d="M187.562 375.146L186.856 375.855L187.149 376.146H187.562V375.146ZM148.011 335.742H147.011V336.157L147.306 336.451L148.011 335.742ZM148.011 271.143V270.143H147.011V271.143H148.011ZM342.396 271.143V272.143H343.396V271.143H342.396ZM342.396 249.463H343.396V248.463H342.396V249.463ZM148.011 249.463H147.011V250.463H148.011V249.463ZM148.011 223.682V222.682H147.011V223.682H148.011ZM373.158 223.682L373.865 222.975L373.572 222.682H373.158V223.682ZM411.683 262.207H412.683V261.793L412.39 261.5L411.683 262.207ZM411.683 291.65V292.65H412.683V291.65H411.683ZM217.299 291.65V290.65H216.299V291.65H217.299ZM217.299 303.516H216.299V304.516H217.299V303.516ZM373.158 303.516L373.87 302.814L373.577 302.516H373.158V303.516ZM411.683 342.627H412.683V342.217L412.396 341.925L411.683 342.627ZM411.683 375.146V376.146H412.683V375.146H411.683ZM188.268 374.438L148.717 335.034L147.306 336.451L186.856 375.855L188.268 374.438ZM149.011 335.742V271.143H147.011V335.742H149.011ZM148.011 272.143H342.396V270.143H148.011V272.143ZM343.396 271.143V249.463H341.396V271.143H343.396ZM342.396 248.463H148.011V250.463H342.396V248.463ZM149.011 249.463V223.682H147.011V249.463H149.011ZM148.011 224.682H373.158V222.682H148.011V224.682ZM372.451 224.389L410.976 262.914L412.39 261.5L373.865 222.975L372.451 224.389ZM410.683 262.207V291.65H412.683V262.207H410.683ZM411.683 290.65H217.299V292.65H411.683V290.65ZM216.299 291.65V303.516H218.299V291.65H216.299ZM217.299 304.516H373.158V302.516H217.299V304.516ZM372.446 304.217L410.971 343.329L412.396 341.925L373.87 302.814L372.446 304.217ZM410.683 342.627V375.146H412.683V342.627H410.683ZM411.683 374.146H187.562V376.146H411.683V374.146ZM651.478 375.146V376.146H651.892L652.185 375.854L651.478 375.146ZM620.717 375.146H619.717V376.146H620.717V375.146ZM620.717 303.369H621.717V302.369H620.717V303.369ZM526.82 303.369V302.369H526.409L526.117 302.658L526.82 303.369ZM454.31 375.146V376.146H454.722L455.014 375.857L454.31 375.146ZM426.332 375.146H425.332V376.146H426.332V375.146ZM426.332 302.344L425.629 301.633L425.332 301.926V302.344H426.332ZM505.873 223.682V222.682H505.462L505.17 222.971L505.873 223.682ZM690.004 223.682H691.004V222.682H690.004V223.682ZM690.004 336.621L690.711 337.328L691.004 337.035V336.621H690.004ZM620.717 282.861V283.861H621.717V282.861H620.717ZM620.717 256.201H621.717V255.201H620.717V256.201ZM574.574 256.201V255.201H574.163L573.871 255.49L574.574 256.201ZM547.621 282.861L546.918 282.15L545.188 283.861H547.621V282.861ZM651.478 374.146H620.717V376.146H651.478V374.146ZM621.717 375.146V303.369H619.717V375.146H621.717ZM620.717 302.369H526.82V304.369H620.717V302.369ZM526.117 302.658L453.607 374.436L455.014 375.857L527.524 304.08L526.117 302.658ZM454.31 374.146H426.332V376.146H454.31V374.146ZM427.332 375.146V302.344H425.332V375.146H427.332ZM427.035 303.055L506.576 224.393L505.17 222.971L425.629 301.633L427.035 303.055ZM505.873 224.682H690.004V222.682H505.873V224.682ZM689.004 223.682V336.621H691.004V223.682H689.004ZM689.297 335.914L650.771 374.439L652.185 375.854L690.711 337.328L689.297 335.914ZM621.717 282.861V256.201H619.717V282.861H621.717ZM620.717 255.201H574.574V257.201H620.717V255.201ZM573.871 255.49L546.918 282.15L548.324 283.572L575.277 256.912L573.871 255.49ZM547.621 283.861H620.717V281.861H547.621V283.861ZM929.799 375.146V376.146H930.213L930.506 375.854L929.799 375.146ZM899.037 375.146H898.037V376.146H899.037V375.146ZM899.037 303.369H900.037V302.369H899.037V303.369ZM805.14 303.369V302.369H804.729L804.437 302.658L805.14 303.369ZM732.631 375.146V376.146H733.042L733.334 375.857L732.631 375.146ZM704.652 375.146H703.652V376.146H704.652V375.146ZM704.652 302.344L703.949 301.633L703.652 301.926V302.344H704.652ZM784.193 223.682V222.682H783.782L783.49 222.971L784.193 223.682ZM968.324 223.682H969.324V222.682H968.324V223.682ZM968.324 336.621L969.031 337.328L969.324 337.035V336.621H968.324ZM899.037 282.861V283.861H900.037V282.861H899.037ZM899.037 256.201H900.037V255.201H899.037V256.201ZM852.894 256.201V255.201H852.483L852.191 255.49L852.894 256.201ZM825.941 282.861L825.238 282.15L823.508 283.861H825.941V282.861ZM929.799 374.146H899.037V376.146H929.799V374.146ZM900.037 375.146V303.369H898.037V375.146H900.037ZM899.037 302.369H805.14V304.369H899.037V302.369ZM804.437 302.658L731.927 374.436L733.334 375.857L805.844 304.08L804.437 302.658ZM732.631 374.146H704.652V376.146H732.631V374.146ZM705.652 375.146V302.344H703.652V375.146H705.652ZM705.355 303.055L784.896 224.393L783.49 222.971L703.949 301.633L705.355 303.055ZM784.193 224.682H968.324V222.682H784.193V224.682ZM967.324 223.682V336.621H969.324V223.682H967.324ZM967.617 335.914L929.091 374.439L930.506 375.854L969.031 337.328L967.617 335.914ZM900.037 282.861V256.201H898.037V282.861H900.037ZM899.037 255.201H852.894V257.201H899.037V255.201ZM852.191 255.49L825.238 282.15L826.644 283.572L853.598 256.912L852.191 255.49ZM825.941 283.861H899.037V281.861H825.941V283.861ZM1263.64 375.146V376.146H1266.07L1264.34 374.436L1263.64 375.146ZM1162.12 375.146L1161.42 375.858L1161.71 376.146H1162.12V375.146ZM1109.1 322.705L1109.8 321.994L1109.1 321.3L1108.39 321.993L1109.1 322.705ZM1055.92 375.146V376.146H1056.33L1056.62 375.858L1055.92 375.146ZM954.408 375.146L953.704 374.436L951.976 376.146H954.408V375.146ZM1026.77 303.516V302.516H1026.36L1026.07 302.805L1026.77 303.516ZM1064.12 303.516V304.516H1066.56L1064.83 302.805L1064.12 303.516ZM998.06 238.184H997.06V238.601L997.357 238.895L998.06 238.184ZM998.06 223.535V222.535H997.06V223.535H998.06ZM1063.83 223.535L1064.53 222.823L1064.24 222.535H1063.83V223.535ZM1109.1 268.213L1108.39 268.925L1109.1 269.619L1109.8 268.923L1109.1 268.213ZM1154.21 223.535V222.535H1153.8L1153.51 222.825L1154.21 223.535ZM1219.98 223.535H1220.98V222.535H1219.98V223.535ZM1219.98 238.184L1220.69 238.895L1220.98 238.601V238.184H1219.98ZM1153.92 303.516L1153.22 302.805L1151.49 304.516H1153.92V303.516ZM1191.27 303.516L1191.98 302.805L1191.68 302.516H1191.27V303.516ZM1263.64 374.146H1162.12V376.146H1263.64V374.146ZM1162.83 374.435L1109.8 321.994L1108.39 323.416L1161.42 375.858L1162.83 374.435ZM1108.39 321.993L1055.22 374.434L1056.62 375.858L1109.8 323.417L1108.39 321.993ZM1055.92 374.146H954.408V376.146H1055.92V374.146ZM955.111 375.857L1027.47 304.226L1026.07 302.805L953.704 374.436L955.111 375.857ZM1026.77 304.516H1064.12V302.516H1026.77V304.516ZM1064.83 302.805L998.763 237.473L997.357 238.895L1063.42 304.227L1064.83 302.805ZM999.06 238.184V223.535H997.06V238.184H999.06ZM998.06 224.535H1063.83V222.535H998.06V224.535ZM1063.13 224.247L1108.39 268.925L1109.8 267.501L1064.53 222.823L1063.13 224.247ZM1109.8 268.923L1154.92 224.246L1153.51 222.825L1108.39 267.502L1109.8 268.923ZM1154.21 224.535H1219.98V222.535H1154.21V224.535ZM1218.98 223.535V238.184H1220.98V223.535H1218.98ZM1219.28 237.473L1153.22 302.805L1154.62 304.227L1220.69 238.895L1219.28 237.473ZM1153.92 304.516H1191.27V302.516H1153.92V304.516ZM1190.57 304.226L1262.93 375.857L1264.34 374.436L1191.98 302.805L1190.57 304.226Z" fill="white" fill-opacity="0.91" mask="url(#path-3-outside-1_7_498)"/>
<path d="M1205.12 119.954L1203.92 119.289C1190.29 131.854 1178.81 133.474 1165.2 130.829C1151.6 128.183 1143.87 118.855 1141.21 115.39C1138.55 111.926 1136.02 108.06 1133.9 99.5234C1131.78 90.9873 1133.39 84.5789 1133.39 84.5789L1135.12 84.9761C1135.12 84.9761 1131.89 100.993 1141.48 113.254C1151.07 125.514 1157.2 126.839 1165.61 129.092C1174.01 131.347 1182.15 129.866 1189.36 127.185C1196.57 124.504 1202.32 117.956 1202.32 117.956L1200.59 116.225C1200.59 116.225 1205.67 111.146 1208.75 104.335C1211.83 97.525 1211.44 90.4534 1211.44 90.4534L1214.11 90.1826C1214.25 83.6447 1210.81 67.904 1198.01 58.5845C1185.22 49.2651 1174.63 50.9757 1174.63 50.9757C1174.63 50.9757 1174.93 59.8236 1174.79 61.8257C1174.65 63.827 1173.18 63.4294 1173.19 62.3595C1173.19 61.2896 1173.01 48.8192 1173.01 48.8192C1176.95 48.7459 1190.16 49.3914 1199.35 57.2486C1208.55 65.1057 1210.27 69.774 1212.8 75.2402C1215.33 80.7064 1216.18 90.9209 1216.18 90.9209L1216.99 90.1187L1216.78 86.4416L1222.87 84.2377L1219.35 69.7574L1212.74 71.7034L1212.14 70.0365L1227.92 66.2993L1224.45 51.3351L1202.15 57.3759L1200.69 55.9109L1236.93 47.512L1233.17 31.7271L1176.55 46.4765L1176.56 44.6091C1164.68 43.1621 1150.52 50.925 1150.52 50.925L1151.85 53.592C1147.85 55.1996 1139.02 65.3557 1139.02 65.3557L1138.22 64.8233C1136.89 66.4265 1134.35 69.2336 1132.47 73.7724C1130.6 78.3122 1129.65 83.7849 1129.65 83.7849L1131.79 84.0487L1130.71 91.2563L1124.7 93.2673L1128.28 107.806L1134.42 106.462L1134.42 107.797L1126.01 109.812L1130.12 125.15L1144.27 120.59L1145.47 122.323L1138.39 124.336L1142.24 139.141L1156.25 135.248C1158.79 136.445 1164.52 138.17 1170.92 138.693C1177.33 139.216 1185.2 137.735 1185.2 137.735L1184.14 132.4C1185.88 131.997 1189.75 130.79 1195.09 127.844C1200.44 124.9 1205.11 119.955 1205.11 119.955L1205.12 119.954ZM1196.8 65.3924C1196.8 65.3924 1204.8 72.0505 1206.92 81.1212C1209.04 90.191 1207.43 96.0657 1207.43 96.0657L1208.76 97.3981C1208.76 97.3981 1207.68 104.071 1204.07 109.015L1203 107.949C1203 107.949 1198.32 115.296 1191.51 119.443C1184.7 123.591 1173.75 124.409 1173.75 124.409L1173.9 117.604C1173.9 117.604 1181.1 118.66 1188.98 112.909C1196.87 107.158 1201.81 101.413 1201.57 88.6031C1201.32 75.7936 1192.39 69.8035 1192.39 69.8035L1196.8 65.3932L1196.8 65.3924ZM1189.29 75.0853C1197.66 83.4589 1197.64 97.0587 1189.24 105.46C1180.84 113.861 1167.24 113.884 1158.86 105.51C1150.49 97.1364 1150.51 83.5366 1158.91 75.1354C1167.31 66.7341 1180.91 66.7117 1189.29 75.0853ZM1131.52 82.4464C1133.38 73.2897 1137.82 67.3579 1137.82 67.3579L1146.08 72.6818C1150.77 65.6019 1157.85 60.9199 1157.85 60.9199L1154.52 56.2551C1148.38 58.9336 1141.82 67.3504 1141.82 67.3504L1140.89 66.4182C1140.89 66.4182 1142.13 64.2815 1146.54 59.8712C1150.95 55.4609 1156.16 52.9498 1156.16 52.9498L1159.75 59.9492C1162.07 58.6903 1164.26 57.9737 1164.26 57.9737L1166.51 64.2422C1158.4 65.8481 1151.55 74.141 1149.14 80.5499C1146.73 86.9588 1146.72 90.6946 1148.18 97.498C1149.63 104.301 1154.03 109.233 1154.03 109.233L1152.29 110.97C1147.77 106.71 1144.97 99.638 1144.97 99.638L1142.43 101.11C1138.85 91.3757 1141.53 83.899 1141.53 83.899L1131.52 82.4481L1131.52 82.4464Z" fill="white" fill-opacity="0.94"/>
<path d="M1070.12 119.954L1068.92 119.289C1055.29 131.854 1043.81 133.474 1030.2 130.829C1016.6 128.183 1008.87 118.855 1006.21 115.39C1003.55 111.926 1001.02 108.06 998.896 99.5234C996.775 90.9873 998.387 84.5789 998.387 84.5789L1000.12 84.9761C1000.12 84.9761 996.893 100.993 1006.48 113.254C1016.07 125.514 1022.2 126.839 1030.6 129.092C1039.01 131.347 1047.15 129.866 1054.36 127.185C1061.57 124.504 1067.32 117.956 1067.32 117.956L1065.59 116.225C1065.59 116.225 1070.67 111.146 1073.75 104.335C1076.83 97.525 1076.44 90.4534 1076.44 90.4534L1079.11 90.1826C1079.25 83.6447 1075.81 67.904 1063.01 58.5846C1050.22 49.2651 1039.63 50.9757 1039.63 50.9757C1039.63 50.9757 1039.93 59.8236 1039.79 61.8257C1039.65 63.827 1038.18 63.4294 1038.19 62.3595C1038.19 61.2896 1038.01 48.8192 1038.01 48.8192C1041.95 48.7459 1055.16 49.3914 1064.35 57.2486C1073.54 65.1057 1075.27 69.774 1077.8 75.2402C1080.32 80.7064 1081.18 90.9209 1081.18 90.9209L1081.99 90.1187L1081.78 86.4416L1087.87 84.2377L1084.35 69.7574L1077.74 71.7034L1077.14 70.0365L1092.92 66.2993L1089.45 51.3351L1067.15 57.3759L1065.69 55.9109L1101.93 47.512L1098.17 31.7271L1041.55 46.4765L1041.56 44.6091C1029.68 43.1621 1015.52 50.925 1015.52 50.925L1016.85 53.592C1012.85 55.1996 1004.02 65.3557 1004.02 65.3557L1003.22 64.8233C1001.89 66.4265 999.346 69.2336 997.471 73.7724C995.596 78.3122 994.652 83.7849 994.652 83.7849L996.786 84.0487L995.707 91.2563L989.699 93.2673L993.277 107.806L999.417 106.462L999.415 107.797L991.005 109.812L995.117 125.15L1009.27 120.59L1010.47 122.323L1003.39 124.336L1007.24 139.141L1021.25 135.248C1023.79 136.445 1029.52 138.17 1035.92 138.693C1042.33 139.216 1050.2 137.735 1050.2 137.735L1049.14 132.4C1050.88 131.997 1054.75 130.79 1060.09 127.844C1065.44 124.9 1070.11 119.955 1070.11 119.955L1070.12 119.954ZM1061.8 65.3924C1061.8 65.3924 1069.8 72.0505 1071.92 81.1212C1074.04 90.191 1072.42 96.0657 1072.42 96.0657L1073.76 97.3981C1073.76 97.3981 1072.68 104.071 1069.07 109.015L1068 107.949C1068 107.949 1063.32 115.296 1056.51 119.443C1049.7 123.591 1038.75 124.409 1038.75 124.409L1038.9 117.604C1038.9 117.604 1046.1 118.66 1053.98 112.909C1061.87 107.158 1066.81 101.413 1066.57 88.6031C1066.32 75.7937 1057.39 69.8035 1057.39 69.8035L1061.8 65.3932L1061.8 65.3924ZM1054.29 75.0853C1062.66 83.4589 1062.64 97.0587 1054.24 105.46C1045.84 113.861 1032.24 113.884 1023.86 105.51C1015.49 97.1364 1015.51 83.5366 1023.91 75.1354C1032.31 66.7341 1045.91 66.7117 1054.29 75.0853ZM996.523 82.4464C998.379 73.2897 1002.82 67.3579 1002.82 67.3579L1011.08 72.6818C1015.77 65.6019 1022.85 60.9199 1022.85 60.9199L1019.52 56.2551C1013.37 58.9336 1006.82 67.3504 1006.82 67.3504L1005.89 66.4182C1005.89 66.4182 1007.13 64.2815 1011.54 59.8712C1015.95 55.4609 1021.16 52.9498 1021.16 52.9498L1024.75 59.9492C1027.07 58.6903 1029.25 57.9737 1029.25 57.9737L1031.51 64.2421C1023.4 65.8481 1016.55 74.141 1014.14 80.5499C1011.73 86.9588 1011.72 90.6946 1013.18 97.498C1014.63 104.301 1019.03 109.233 1019.03 109.233L1017.29 110.97C1012.77 106.71 1009.97 99.638 1009.97 99.638L1007.43 101.11C1003.85 91.3757 1006.53 83.899 1006.53 83.899L996.523 82.4481L996.523 82.4464Z" fill="white" fill-opacity="0.94"/>
<path d="M324.404 119.958L325.604 119.294C339.235 131.859 350.715 133.479 364.321 130.834C377.928 128.188 385.651 118.86 388.315 115.395C390.979 111.93 393.507 108.065 395.628 99.5273C397.749 90.9908 396.137 84.5821 396.137 84.5821L394.403 84.9793C394.403 84.9793 397.631 100.997 388.044 113.258C378.457 125.519 372.32 126.843 363.918 129.097C355.514 131.352 347.373 129.871 340.162 127.19C332.953 124.509 327.203 117.961 327.203 117.961L328.935 116.229C328.935 116.229 323.856 111.15 320.776 104.339C317.696 97.5288 318.083 90.4569 318.083 90.4569L315.414 90.1861C315.27 83.6479 318.714 67.9066 331.509 58.5868C344.304 49.267 354.889 50.9777 354.889 50.9777C354.889 50.9777 354.596 59.8259 354.732 61.8281C354.869 63.8295 356.339 63.4318 356.336 62.3619C356.334 61.292 356.512 48.8211 356.512 48.8211C352.574 48.7478 339.365 49.3933 330.171 57.2508C320.976 65.1082 319.249 69.7767 316.723 75.2431C314.196 80.7095 313.338 90.9244 313.338 90.9244L312.535 90.1221L312.737 86.445L306.654 84.2409L310.174 69.7601L316.783 71.7061L317.381 70.0392L301.604 66.3019L305.074 51.3371L327.368 57.3781L328.833 55.9131L292.591 47.5138L296.346 31.7283L352.97 46.4783L352.967 44.6108C364.844 43.1638 379.001 50.927 379.001 50.927L377.671 53.5941C381.677 55.2018 390.501 65.3582 390.501 65.3582L391.301 64.8258C392.637 66.4291 395.178 69.2362 397.054 73.7753C398.929 78.3152 399.872 83.7882 399.872 83.7882L397.738 84.0519L398.817 91.2598L404.826 93.2709L401.247 107.81L395.107 106.466L395.109 107.801L403.519 109.817L399.408 125.155L385.255 120.595L384.058 122.328L391.133 124.34L387.288 139.146L373.271 135.253C370.737 136.45 365.003 138.175 358.598 138.698C352.194 139.221 344.319 137.74 344.319 137.74L345.378 132.405C343.642 132.002 339.77 130.795 334.428 127.849C329.086 124.905 324.407 119.959 324.407 119.959L324.404 119.958ZM332.722 65.3949C332.722 65.3949 324.726 72.0533 322.606 81.1243C320.486 90.1944 322.097 96.0694 322.097 96.0694L320.764 97.4019C320.764 97.4019 321.843 104.075 325.454 109.019L326.519 107.953C326.519 107.953 331.202 115.301 338.014 119.448C344.827 123.596 355.769 124.414 355.769 124.414L355.625 117.609C355.625 117.609 348.42 118.664 340.538 112.913C332.656 107.162 327.709 101.416 327.955 88.6065C328.201 75.7966 337.131 69.8062 337.131 69.8062L332.721 65.3957L332.722 65.3949ZM340.235 75.0882C331.861 83.4621 331.883 97.0624 340.285 105.464C348.686 113.866 362.287 113.888 370.661 105.514C379.034 97.1402 379.012 83.5398 370.61 75.1382C362.209 66.7367 348.609 66.7143 340.235 75.0882ZM398.002 82.4496C396.145 73.2925 391.704 67.3605 391.704 67.3605L383.44 72.6846C378.758 65.6044 371.678 60.9223 371.678 60.9223L375.006 56.2573C381.149 58.9359 387.701 67.353 387.701 67.353L388.633 66.4208C388.633 66.4208 387.395 64.284 382.985 59.8735C378.574 55.4631 373.366 52.9518 373.366 52.9518L369.775 59.9516C367.454 58.6926 365.268 57.976 365.268 57.976L363.01 64.2446C371.12 65.8506 377.972 74.1439 380.384 80.553C382.796 86.9622 382.803 90.6981 381.347 97.5017C379.89 104.305 375.493 109.237 375.493 109.237L377.23 110.974C381.758 106.714 384.552 99.6418 384.552 99.6418L387.09 101.114C390.677 91.3792 387.996 83.9022 387.996 83.9022L398.002 82.4513L398.002 82.4496Z" fill="white" fill-opacity="0.94"/>
<path d="M193.406 119.958L194.606 119.294C208.237 131.859 219.717 133.479 233.323 130.834C246.93 128.188 254.653 118.86 257.317 115.395C259.981 111.93 262.509 108.065 264.63 99.5273C266.751 90.9908 265.139 84.5821 265.139 84.5821L263.405 84.9793C263.405 84.9793 266.633 100.997 257.046 113.258C247.459 125.519 241.322 126.843 232.92 129.097C224.516 131.352 216.375 129.871 209.164 127.19C201.955 124.509 196.205 117.961 196.205 117.961L197.937 116.229C197.937 116.229 192.858 111.15 189.778 104.339C186.698 97.5288 187.085 90.4569 187.085 90.4569L184.416 90.1861C184.272 83.6479 187.715 67.9066 200.51 58.5868C213.305 49.267 223.891 50.9777 223.891 50.9777C223.891 50.9777 223.598 59.8259 223.734 61.8281C223.871 63.8295 225.341 63.4318 225.338 62.3619C225.336 61.292 225.514 48.8211 225.514 48.8211C221.576 48.7478 208.367 49.3933 199.173 57.2508C189.978 65.1082 188.251 69.7767 185.725 75.2431C183.198 80.7095 182.34 90.9244 182.34 90.9244L181.537 90.1221L181.739 86.445L175.656 84.2409L179.176 69.7601L185.785 71.7061L186.383 70.0392L170.606 66.3019L174.076 51.3371L196.37 57.3781L197.835 55.9131L161.593 47.5138L165.348 31.7283L221.972 46.4783L221.969 44.6108C233.846 43.1638 248.003 50.9269 248.003 50.9269L246.673 53.5941C250.679 55.2018 259.503 65.3582 259.503 65.3582L260.303 64.8258C261.639 66.4291 264.18 69.2362 266.056 73.7753C267.931 78.3152 268.874 83.7882 268.874 83.7882L266.74 84.0519L267.819 91.2598L273.827 93.2709L270.249 107.81L264.109 106.466L264.111 107.801L272.521 109.817L268.409 125.155L254.257 120.595L253.06 122.328L260.135 124.34L256.29 139.146L242.273 135.253C239.739 136.45 234.005 138.175 227.6 138.698C221.196 139.221 213.321 137.74 213.321 137.74L214.38 132.405C212.644 132.002 208.772 130.795 203.43 127.849C198.088 124.905 193.409 119.959 193.409 119.959L193.406 119.958ZM201.724 65.3949C201.724 65.3949 193.728 72.0533 191.608 81.1243C189.488 90.1944 191.099 96.0694 191.099 96.0694L189.766 97.4019C189.766 97.4019 190.844 104.075 194.456 109.019L195.521 107.953C195.521 107.953 200.204 115.301 207.016 119.448C213.829 123.596 224.771 124.414 224.771 124.414L224.627 117.609C224.627 117.609 217.422 118.664 209.54 112.913C201.658 107.162 196.711 101.416 196.957 88.6065C197.203 75.7966 206.133 69.8062 206.133 69.8062L201.723 65.3957L201.724 65.3949ZM209.237 75.0882C200.863 83.4621 200.885 97.0624 209.287 105.464C217.688 113.866 231.289 113.888 239.663 105.514C248.036 97.1402 248.014 83.5398 239.612 75.1382C231.211 66.7367 217.611 66.7143 209.237 75.0882ZM267.004 82.4496C265.147 73.2925 260.706 67.3605 260.706 67.3605L252.442 72.6846C247.76 65.6044 240.68 60.9223 240.68 60.9223L244.008 56.2573C250.15 58.9359 256.703 67.353 256.703 67.353L257.635 66.4208C257.635 66.4208 256.397 64.284 251.987 59.8735C247.576 55.4631 242.368 52.9518 242.368 52.9518L238.777 59.9516C236.456 58.6926 234.27 57.976 234.27 57.976L232.012 64.2446C240.122 65.8506 246.974 74.1439 249.386 80.553C251.798 86.9622 251.805 90.6981 250.349 97.5017C248.891 104.305 244.495 109.237 244.495 109.237L246.232 110.974C250.76 106.714 253.554 99.6418 253.554 99.6418L256.092 101.114C259.679 91.3792 256.998 83.9022 256.998 83.9022L267.004 82.4513L267.004 82.4496Z" fill="white" fill-opacity="0.94"/>
<defs>
<linearGradient id="paint0_linear_7_498" x1="22.5" y1="92.9998" x2="1376.5" y2="92.9999" gradientUnits="userSpaceOnUse">
<stop offset="0.135" stop-color="white" stop-opacity="0"/>
<stop offset="0.33" stop-color="white"/>
<stop offset="0.67" stop-color="white"/>
<stop offset="0.865" stop-color="white" stop-opacity="0"/>
</linearGradient>
</defs>
</svg>
